<?xml version="1.0" encoding="UTF-8"?>
<svg width="376px" height="419px" viewBox="0 0 376 419" version="1.1" xmlns="http://www.w3.org/2000/svg" xmlns:xlink="http://www.w3.org/1999/xlink">
    <!-- Generator: Sketch 61.2 (89653) - https://sketch.com -->
    <title>Path</title>
    <desc>Created with Sketch.</desc>
    <g id="Page-1" stroke="none" stroke-width="1" fill="none" fill-rule="evenodd">
        <g id="a" transform="translate(-134.000000, -53.000000)" stroke="#979797">
            <polyline id="Path" points="268.693848 69.4625854 240.682373 94.2301331 240.682373 134.829163 198.178101 161.024902 146.387451 181.775574 153.01178 205.371033 240.682373 231.105988 227.441162 275.395782 198.178101 298.76947 173.098145 289.934906 135.059967 330.46936 164.591797 345.408386 173.098145 330.46936 254.242615 361.421143 305.083435 319.23761 340.350037 319.23761 366.374695 391.441589 340.350037 431.793152 366.374695 471.497986 388.827759 465.126099 388.827759 441.796326 441.518677 406.803528 405.748413 275.395782 405.748413 237.002563 490.53125 192.129333 509.271545 134.829163 490.53125 108.775177 441.518677 129.817078 398.144531 134.829163 382.413269 69.4625854 348 53.6483612"></polyline>
        </g>
    </g>
</svg>